<svg width="230" height="230" viewBox="0 0 230 230" fill="none" xmlns="http://www.w3.org/2000/svg"><path fill="#F2F2F2" d="M0 0h230v230H0z"/><path fill-rule="evenodd" clip-rule="evenodd" d="M230 0H0v230h230V0zM25 39c8.284 0 15-6.716 15-15 0-8.284-6.716-15-15-15-8.284 0-15 6.716-15 15 0 8.284 6.716 15 15 15zm195-15c0 8.284-6.716 15-15 15-8.284 0-15-6.716-15-15 0-8.284 6.716-15 15-15 8.284 0 15 6.716 15 15zM25 219c8.284 0 15-6.716 15-15 0-8.284-6.716-15-15-15-8.284 0-15 6.716-15 15 0 8.284 6.716 15 15 15zm195-15c0 8.284-6.716 15-15 15-8.284 0-15-6.716-15-15 0-8.284 6.716-15 15-15 8.284 0 15 6.716 15 15zm-105 0c51.915 0 94-42.085 94-94s-42.085-94-94-94-94 42.085-94 94 42.085 94 94 94z" fill="#292929"/><path d="M62.5 145.5c0 3.459-2.603 6-5.5 6s-5.5-2.541-5.5-6 2.603-6 5.5-6 5.5 2.541 5.5 6z" stroke="#292929" stroke-width="5"/><path d="M53.986 138.466s-3.789-23.151 28.202-46.301c31.99-23.151 50.51-23.572 50.51-23.572" stroke="#292929" stroke-width="5" stroke-linecap="round"/><circle cx="172.774" cy="144.64" r="5.918" transform="rotate(-119.947 172.774 144.64)" stroke="#292929" stroke-width="5"/><path d="M168.409 150.555s-18.169 14.839-54.198-1.323c-36.03-16.162-45.64-32-45.64-32" stroke="#292929" stroke-width="5" stroke-linecap="round"/><circle cx="113.726" cy="43.889" r="5.918" transform="rotate(119.545 113.726 43.89)" stroke="#292929" stroke-width="5"/><path d="M121.038 44.647s22.009 8.12 26.374 47.366c4.366 39.246-4.4 55.566-4.4 55.566M58.633 104s-9.196-22.896 1.672-31.638C71.174 63.619 95 68.199 95 68.199m53.532-2.221s24.859 1.935 27.945 15.66c3.087 13.725-11.678 33.195-11.678 33.195m-27.551 47.53s-14.225 20.478-27.63 16.21c-13.405-4.268-22.752-26.845-22.752-26.845" stroke="#292929" stroke-width="5" stroke-linecap="round"/><ellipse cx="115" cy="110.5" rx="8" ry="7.5" fill="#292929"/></svg>